<?xml version="1.0" encoding="utf-8"?>
<!-- Generator: Adobe Illustrator 15.1.0, SVG Export Plug-In  -->
<!DOCTYPE svg PUBLIC "-//W3C//DTD SVG 1.1//EN" "http://www.w3.org/Graphics/SVG/1.1/DTD/svg11.dtd" [
	<!ENTITY ns_flows "http://ns.adobe.com/Flows/1.0/">
]>
<svg version="1.1"
	 xmlns="http://www.w3.org/2000/svg" xmlns:xlink="http://www.w3.org/1999/xlink" xmlns:a="http://ns.adobe.com/AdobeSVGViewerExtensions/3.0/"
	 x="0px" y="0px" width="128px" height="128px" viewBox="-7.523 -20.875 128 128" enable-background="new -7.523 -20.875 128 128"
	 xml:space="preserve">
<defs>
</defs>
<path fill-rule="evenodd" clip-rule="evenodd" d="M1.984,107.125c-0.661,0-1.323,0-1.984,0c0.291-28.144,0.665-56.204,16.532-68.772
	c-1.902,4.27-5.3,7.044-7.935,10.581c-4.35,16.59-6.941,34.939-6.613,56.208C1.984,105.803,1.984,106.464,1.984,107.125z"/>
<path fill-rule="evenodd" clip-rule="evenodd" d="M48.273,55.546c2.513-0.53,0.841,3.127,1.322,4.629
	C49.121,58.583,47.237,56.662,48.273,55.546z"/>
<path fill-rule="evenodd" clip-rule="evenodd" d="M35.047,107.125c-0.662,0-1.323,0-1.984,0c-0.075-2.35-2.446-2.404-1.983-5.29
	c-1.492,0.492-0.259,3.709-0.662,5.29c-1.102,0-2.204,0-3.307,0c-1.661-15.094,1.966-25.406,5.952-36.369
	c5.269-3.548,5.732-11.902,13.226-13.227c-3.608,3.007-6.524,6.702-8.597,11.242c2.45,0.889,5.362-3.439,10.581-1.983
	c2.614-0.032-0.112-5.402,3.306-4.629c-1.796,2.901,0.844,3.542,1.323,5.951c-3.818,3.235,0.271,14.377-5.951,15.209
	c1.093-4.467,1.692-8.913,0.661-13.887c-2.493,0.593-5.601,0.57-7.935,1.323c-0.084,2.675-0.928,4.214-1.984,7.273
	c-1.479-0.284-0.269-3.258-0.661-4.629C27.7,79.557,28.731,98.647,35.047,107.125z"/>
<path fill-rule="evenodd" clip-rule="evenodd" d="M109.771,107.125c-0.882,0-1.763,0-2.645,0
	c3.784-16.079,1.505-29.622,1.322-48.272C112.868,71.298,111.195,92.69,109.771,107.125z"/>
<path fill-rule="evenodd" clip-rule="evenodd" d="M37.692,80.013c3.665-0.357,2.517,4.097,6.613,3.307
	C42.846,87.587,37.952,82.972,37.692,80.013z"/>
<path fill-rule="evenodd" clip-rule="evenodd" d="M60.837,80.013c0.44,0,0.881,0,1.323,0c0.308,1.411-0.946,1.26-1.984,1.323
	C60.302,80.801,60.839,80.677,60.837,80.013z"/>
<path fill-rule="evenodd" clip-rule="evenodd" d="M68.111,107.125c-0.883,0-1.765,0-2.646,0c5.657-14.539-20.436-12.052-17.854,0
	c-0.441,0-0.882,0-1.322,0C42.02,93.15,73.936,88.991,68.111,107.125z"/>
<path fill-rule="evenodd" clip-rule="evenodd" d="M89.933,107.125c-0.44,0-0.882,0-1.322,0c0.014-1.97-0.062-4.029,1.983-3.968
	C90.609,104.715,89.455,105.105,89.933,107.125z"/>
<path fill-rule="evenodd" clip-rule="evenodd" d="M97.868,107.125c-1.103,0-2.205,0-3.307,0c0.669-5.943,4.75-8.475,5.29-14.548
	c-0.181-3.12-5.273-6.901-1.983-9.258c1.742,0.461,1.397,3.01,3.306,3.307c-2.227-16.947-7.295-32.101-17.854-42.321
	c-6.803-0.691-8.837-6.151-13.886-8.597c1.102,3.566,0.342,7.933-1.984,9.919c4.022,0.72,9.3,2.579,7.273,7.274
	c4.675,0.847,5.294,6.342,7.936,9.919c2.282,3.089,5.193,4.668,6.612,8.597c0.554,1.533,0.062,3.832,1.323,5.29
	c0.726,8.915,2.151,17.388-0.661,25.128c-0.384-2.44-3.596,2.75-3.306,5.29c-0.883,0-1.765,0-2.646,0
	c4.289-7.586,11.146-27.609,0-33.063c0.314,5.605,0.067,10.647-3.308,12.564c-8.015-0.141-10.292-6.018-10.579-13.887
	c-1.542,1.919-5.224,8.233-6.613,5.951c5.81-6.894,10.266-16.681,9.258-28.435c-2.055-1.472-4.855-2.197-5.951-4.629
	c-0.482-1.805,1.313-1.332,1.323-2.646c-0.853-3.335-1.644-6.733-1.323-11.241C62.642,21.415,59.709,13.845,52.24,7.274
	C46.52,5.5,42.211,2.314,35.708,1.323c-2.551,0.839-3.056-0.11-5.951,0.661c-3.788,1.282-6.928,3.212-9.919,5.29
	c-6.423,4.158-9.086,12.075-13.226,18.516C9.942,11.486,18.82,2.729,33.725,0c21.328,0.935,29.851,14.674,35.047,31.741
	c3.711,3.564,8.501,6.047,12.564,9.257c2.919-0.829,4.897-2.596,8.597-2.645c0.046,2.691-2.443,2.847-5.29,2.645
	c0.584,4.265,3.676,6.023,6.612,7.936c2.029,3.702,4.136,7.326,7.274,9.919c-0.391,3.477,1.341,4.83,1.983,7.273
	c0.985-9.97-6.128-16.517-9.919-25.128c1.143-2.826,3.729,3.547,4.629,5.291c2.28-0.364,2.928-2.362,5.951-1.983
	c1.873,3.417,4.104,6.477,5.952,9.919c-3.305,0.865-4.295-6.276-7.274-7.936c-0.979,0.345-1.667,0.979-2.646,1.322
	c6.189,7.037,7.337,19.115,8.597,31.08c0.58,2.123-1.715,1.371-1.983,2.646c0.479,5.613,3.546,15.428-1.984,15.209
	C101.684,101.243,98.583,102.992,97.868,107.125z M101.835,72.74c-0.006-0.969,0.251-5.412-0.661-3.307
	C101.181,70.403,100.923,74.845,101.835,72.74z M73.4,67.449c4.746,0.334,9.686,3.971,12.564,3.969
	c-3.96-5.078-7.441-10.634-9.919-17.193c-0.661,0-1.323,0-1.983,0C75.454,58.102,72.787,62.288,73.4,67.449z M78.03,84.642
	c5.103-0.871,1.609-9.092,1.983-13.225c-1.382-1.043-4.392-0.459-5.951-1.323C72.318,75.63,72.423,83.188,78.03,84.642z"/>
<path fill-rule="evenodd" clip-rule="evenodd" d="M17.193,107.125c0.541-3.627-3.357-2.814-3.967-5.29
	c-2.059-8.087-3.636-17.638-1.323-25.79c-1.159-0.604-2.297-1.229-1.984-3.306c0.862-14.126,5.364-24.614,13.887-31.08
	c-0.794-1.85-3.429-1.86-4.629-3.306c2.382-1.533,6.361,1.903,7.935,1.323c-1.12,2.626-3.321,4.172-3.968,7.273
	c-0.766,1.486-5.905,4.747-3.306,5.291c0.831,0.27,1.351,0.853,1.322,1.983c3.527-2.432,5.065-10.355,9.919-9.259
	c-7.155,4.09-9.349,16.658-14.548,20.5c0.677-4.172,4.176-5.521,3.968-10.58c-1.103,0-2.204,0-3.307,0
	c-1.151,5.467-4.333,12.411-3.967,17.192c-0.489-2.084,2.14-4.4,2.645-3.306c-1.03,9.046-4.799,20.222,0,27.773
	c0.706-0.618,0.206-2.439,1.984-1.984c0.103,3.665,0.854,9.395,3.307,12.564C19.838,107.125,18.516,107.125,17.193,107.125z"/>
<path fill-rule="evenodd" clip-rule="evenodd" d="M55.547,33.725c-6.863-8.601-17.641-15.951-31.08-15.871
	c3.309-1.374,6.439-0.681,9.258-1.322c11.84,4.691,21.859,11.205,29.096,20.5c-1.568,1.242-3.824-0.833-5.951,0.661
	c-0.243-1.125,0.516-1.248,1.322-1.323c-10.211-4.158-20.853,2.436-26.451,7.274c0.984-3.629-2.389-2.901-2.645-5.29
	c2.396-0.19,2.558,1.851,4.629,1.984C39.888,37.021,44.905,32.562,55.547,33.725z"/>
<path fill-rule="evenodd" clip-rule="evenodd" d="M20.5,18.516c-3.39,3.002-8.195,4.59-9.919,9.258
	C10.413,23.85,15.089,19.063,20.5,18.516z"/>
<path fill-rule="evenodd" clip-rule="evenodd" d="M56.869,76.708c0.386,0.704,0.672,2.006,1.322,3.967
	c-3.461-1.607-5.068-5.071-5.951-9.257C55.066,71.479,54.898,77.986,56.869,76.708z"/>
</svg>
